<?xml version="1.0" standalone="no"?>
<!DOCTYPE svg PUBLIC "-//W3C//DTD SVG 1.1//EN" "http://www.w3.org/Graphics/SVG/1.1/DTD/svg11.dtd">

<svg width="800" height="600" version="1.1" xmlns="http://www.w3.org/2000/svg">
	<ellipse stroke="black" stroke-width="1" fill="none" cx="208.5" cy="432.5" rx="30" ry="30"/>
	<text x="173.5" y="438.5" font-family="Times New Roman" font-size="20">Sleeping</text>
	<ellipse stroke="black" stroke-width="1" fill="none" cx="636.5" cy="130.5" rx="30" ry="30"/>
	<text x="610.5" y="136.5" font-family="Times New Roman" font-size="20">Eating</text>
	<ellipse stroke="black" stroke-width="1" fill="none" cx="208.5" cy="130.5" rx="30" ry="30"/>
	<text x="175.5" y="136.5" font-family="Times New Roman" font-size="20">Hunting</text>
	<ellipse stroke="black" stroke-width="1" fill="none" cx="636.5" cy="432.5" rx="30" ry="30"/>
	<text x="600.5" y="438.5" font-family="Times New Roman" font-size="20">Preening</text>
	<polygon stroke="black" stroke-width="1" points="238.5,130.5 606.5,130.5"/>
	<polygon fill="black" stroke-width="1" points="606.5,130.5 598.5,125.5 598.5,135.5"/>
	<text x="365.5" y="121.5" font-family="Times New Roman" font-size="20">Animal Killed</text>
	<polygon stroke="black" stroke-width="1" points="636.5,160.5 636.5,402.5"/>
	<polygon fill="black" stroke-width="1" points="636.5,402.5 641.5,394.5 631.5,394.5"/>
	<text x="641.5" y="287.5" font-family="Times New Roman" font-size="20">Blood on fur</text>
	<polygon stroke="black" stroke-width="1" points="606.5,432.5 238.5,432.5"/>
	<polygon fill="black" stroke-width="1" points="238.5,432.5 246.5,437.5 246.5,427.5"/>
	<text x="311.5" y="453.5" font-family="Times New Roman" font-size="20">Tired after 3 previous states</text>
	<path stroke="black" stroke-width="1" fill="none" d="M 618.822,154.736 A 773.297,773.297 0 0 1 237.26,423.969"/>
	<polygon fill="black" stroke-width="1" points="237.26,423.969 246.398,426.311 243.369,416.781"/>
	<text x="453.5" y="339.5" font-family="Times New Roman" font-size="20">Tired after Hunting</text>
	<polygon stroke="black" stroke-width="1" points="208.5,402.5 208.5,160.5"/>
	<polygon fill="black" stroke-width="1" points="208.5,160.5 203.5,168.5 213.5,168.5"/>
	<text x="70.5" y="287.5" font-family="Times New Roman" font-size="20">Woke up hungry</text>
	<path stroke="black" stroke-width="1" fill="none" d="M 238.051,135.65 A 580.892,580.892 0 0 1 621.741,406.385"/>
	<polygon fill="black" stroke-width="1" points="238.051,135.65 244.909,142.129 246.88,132.325"/>
	<text x="463.5" y="221.5" font-family="Times New Roman" font-size="20">Hungry again</text>
</svg>
